<?xml version="1.0" standalone="no"?>
<!DOCTYPE svg PUBLIC "-//W3C//DTD SVG 20010904//EN"
 "http://www.w3.org/TR/2001/REC-SVG-20010904/DTD/svg10.dtd">
<svg version="1.0" xmlns="http://www.w3.org/2000/svg"
 width="158.000000pt" height="158.000000pt" viewBox="0 0 158.000000 158.000000"
 preserveAspectRatio="xMidYMid meet">
<metadata>
Created by potrace 1.14, written by Peter Selinger 2001-2017
</metadata>
<g transform="translate(0.000000,158.000000) scale(0.100000,-0.100000)"
fill="#000000" stroke="none">
<path d="M780 1496 c-3 -2 -18 -7 -35 -10 -56 -10 -90 -17 -110 -23 -33 -9
-153 -90 -177 -119 -13 -15 -34 -39 -47 -53 -24 -27 -55 -81 -47 -81 3 0 -1
-17 -7 -37 -9 -25 -10 -53 -5 -83 7 -41 13 -86 23 -180 2 -23 -2 -38 -12 -45
-21 -15 -25 -98 -7 -147 7 -21 11 -38 9 -38 -2 0 1 -15 7 -32 13 -39 37 -70
49 -62 8 4 27 -23 27 -39 1 -28 17 -98 30 -127 27 -62 29 -59 -57 -75 -28 -5
-23 1 -46 -60 -10 -27 -29 -64 -42 -81 -12 -17 -23 -35 -23 -40 0 -13 -168
-96 -202 -100 -24 -3 -108 -50 -108 -60 0 -2 356 -4 790 -4 l790 0 0 28 c0 23
-7 31 -37 44 -21 9 -58 20 -82 23 -24 4 -60 12 -80 20 -20 7 -47 16 -61 19
-18 4 -49 36 -99 102 -40 53 -75 102 -77 109 -3 7 7 37 22 66 15 30 30 65 32
79 2 13 6 27 10 30 4 3 9 30 10 60 2 35 10 62 22 75 9 11 21 37 24 58 13 68 8
190 -9 229 -19 47 -25 83 -29 190 -2 59 -8 93 -20 109 -9 13 -16 29 -16 36 0
6 -7 19 -16 27 -8 9 -13 16 -10 16 8 0 -23 38 -59 72 -16 15 -35 28 -42 28 -7
0 -13 4 -13 9 0 20 -254 83 -270 67z"/>
</g>
</svg>
